<?xml version="1.0" encoding="utf-8"?>
<!-- Generator: Adobe Illustrator 19.0.0, SVG Export Plug-In . SVG Version: 6.00 Build 0)  -->
<svg version="1.1" id="Layer_1" xmlns="http://www.w3.org/2000/svg" xmlns:xlink="http://www.w3.org/1999/xlink" x="0px" y="0px"
	 viewBox="-409 287.3 22 22" style="enable-background:new -409 287.3 22 22;" xml:space="preserve">
<style type="text/css">
	.st0{fill:#F4A452;}
</style>
<g id="XMLID_1576_">
	<path id="XMLID_1578_" class="st0" d="M-405.6,291.9L-405.6,291.9L-405.6,291.9L-405.6,291.9L-405.6,291.9c0.3-0.3,0.5-0.3,0.9,0.1
		l1.3,1.3c0.3,0.3,0.3,0.5,0.1,0.8l0,0c-1.3,1.2-2,2.8-2,4.6c0,3.9,3.2,7.1,7.1,7.1c0.1,0,0.1,0,0.2,0s0.1,0,0.2,0
		c3.9,0,7.1-3.2,7.1-7.1c0-1.8-0.7-3.5-1.8-4.7c-0.2-0.3-0.3-0.4,0-0.8l1.3-1.3c0.4-0.4,0.6-0.3,0.8-0.1l0,0l0,0l0,0l0,0
		c1.7,1.8,2.7,4.2,2.7,6.9c0,5.6-4.5,10.1-10.1,10.1c-0.1,0-0.2,0-0.3,0s-0.2,0-0.3,0c-5.4,0-9.9-4.5-9.9-10.1
		C-408.3,296.1-407.3,293.7-405.6,291.9z"/>
	<path id="XMLID_1577_" class="st0" d="M-398.2,301.6h3.3c0.4,0,0.6-0.1,0.6-0.7v-1.6c0-0.5-0.2-0.7-0.6-0.7h-1.9
		c-0.3,0-0.4-0.1-0.4-0.4v-9.8c0-0.4-0.1-0.6-0.7-0.6h-1.7c-0.5,0-0.7,0.2-0.7,0.6v11.2c0,1-0.1,1.3,0.4,1.7
		C-399.5,301.6-399.2,301.6-398.2,301.6z"/>
</g>
</svg>
