<?xml version="1.0" encoding="utf-8"?>
<!-- Generator: Adobe Illustrator 19.0.0, SVG Export Plug-In . SVG Version: 6.00 Build 0)  -->
<svg version="1.1" id="Layer_1" xmlns="http://www.w3.org/2000/svg" xmlns:xlink="http://www.w3.org/1999/xlink" x="0px" y="0px"
	 viewBox="0 0 22 22" style="enable-background:new 0 0 22 22;" xml:space="preserve">
<style type="text/css">
	.st0{fill:#1F74BA;}
</style>
<path id="XMLID_1686_" class="st0" d="M6.9-23.6c1.1-1.3,2.6-2.1,4.2-2.1c1.6,0,3.1,0.7,4.2,2.1c0.9,1.1,1.4,2.6,1.4,4.2
	c0,0.6-0.1,1.2-0.2,1.8h-2.9c0.3-0.5,0.4-1.2,0.4-1.8c0-1.9-1.3-3.5-2.8-3.5c-1.6,0-2.8,1.6-2.8,3.5c0,0.7,0.2,1.3,0.4,1.8H5.7
	c-0.2-0.6-0.2-1.2-0.2-1.8C5.4-21,5.9-22.4,6.9-23.6"/>
<path id="XMLID_1685_" class="st0" d="M18-5.8c0,0.6-0.5,1.2-1.2,1.2h-1.6v-6.9l-1.6,6.9H8.4l-1.6-6.9v6.9H5.2C4.5-4.6,4-5.2,4-5.8
	v-9.4c0-0.6,0.5-1.2,1.2-1.2h4.6l1.2,4.9h0l1.2-4.9h4.6c0.6,0,1.2,0.5,1.2,1.2V-5.8z"/>
<g id="XMLID_1576_">
	<path id="XMLID_1578_" class="st0" d="M3.4,4.6L3.4,4.6C3.4,4.6,3.4,4.6,3.4,4.6C3.4,4.6,3.4,4.6,3.4,4.6L3.4,4.6
		c0.3-0.3,0.5-0.3,0.9,0.1l1.3,1.3c0.3,0.3,0.3,0.5,0.1,0.8v0C4.4,8,3.7,9.6,3.7,11.4c0,3.9,3.2,7.1,7.1,7.1c0.1,0,0.1,0,0.2,0
		c0.1,0,0.1,0,0.2,0c3.9,0,7.1-3.2,7.1-7.1c0-1.8-0.7-3.5-1.8-4.7c-0.2-0.3-0.3-0.4,0-0.8l1.3-1.3c0.4-0.4,0.6-0.3,0.8-0.1l0,0
		c0,0,0,0,0,0c0,0,0,0,0,0l0,0c1.7,1.8,2.7,4.2,2.7,6.9c0,5.6-4.5,10.1-10.1,10.1c-0.1,0-0.2,0-0.3,0c-0.1,0-0.2,0-0.3,0
		C5.2,21.5,0.7,17,0.7,11.4C0.7,8.8,1.7,6.4,3.4,4.6z"/>
	<path id="XMLID_1577_" class="st0" d="M10.8,14.3h3.3c0.4,0,0.6-0.1,0.6-0.7V12c0-0.5-0.2-0.7-0.6-0.7h-1.9c-0.3,0-0.4-0.1-0.4-0.4
		V1.1c0-0.4-0.1-0.6-0.7-0.6H9.4c-0.5,0-0.7,0.2-0.7,0.6v11.2c0,1-0.1,1.3,0.4,1.7C9.5,14.3,9.8,14.3,10.8,14.3z"/>
</g>
</svg>
